<svg id="svg" version="1.1" xmlns="http://www.w3.org/2000/svg" xmlns:xlink="http://www.w3.org/1999/xlink" width="400" height="266.6666666666667" viewBox="0, 0, 400,266.6666666666667"><g id="svgg"><path id="path0" d="M110.677 36.623 C 86.681 38.840,70.928 48.699,68.497 63.021 C 67.877 66.674,68.266 155.820,68.911 157.815 C 71.558 166.005,75.649 170.652,83.789 174.714 L 86.458 176.046 86.458 179.143 L 86.458 182.240 85.547 182.778 C 84.895 183.163,84.632 183.503,84.625 183.976 C 84.619 184.338,84.615 185.807,84.615 187.240 C 84.615 192.097,84.591 191.906,85.285 192.601 L 85.935 193.251 93.902 193.175 L 101.870 193.099 102.367 192.484 C 103.735 190.794,102.891 182.552,101.350 182.552 C 101.169 182.552,101.042 182.162,101.042 181.608 C 101.042 180.682,101.058 180.667,101.888 180.834 C 102.354 180.927,103.965 181.182,105.469 181.400 C 106.973 181.619,108.555 181.849,108.984 181.913 L 109.766 182.030 109.679 185.456 C 109.538 191.030,109.910 191.664,113.318 191.666 L 115.048 191.667 115.187 200.456 C 115.263 205.290,115.451 209.902,115.604 210.706 C 119.484 231.128,140.001 243.174,159.375 236.406 C 170.426 232.545,177.878 223.907,181.009 211.328 C 181.251 210.358,181.375 203.495,181.497 184.375 L 181.660 158.724 182.342 156.221 C 185.221 145.662,193.088 137.630,203.385 134.738 C 205.756 134.072,206.209 134.036,214.193 133.884 C 223.073 133.713,222.988 133.727,224.349 132.297 C 225.801 130.771,225.533 129.032,223.400 126.159 C 216.804 117.273,213.758 109.914,212.357 99.479 C 207.870 66.069,243.935 44.734,268.710 66.143 C 271.382 68.452,271.527 68.453,274.169 66.173 C 292.550 50.315,319.287 57.173,328.386 80.079 C 331.906 88.941,331.778 99.196,328.005 110.564 C 326.403 115.390,325.506 117.189,321.910 122.786 C 317.122 130.240,308.403 139.265,299.740 145.734 C 289.452 153.415,274.115 162.500,271.433 162.500 C 270.352 162.500,263.007 158.821,258.203 155.874 C 255.446 154.183,249.887 150.611,249.349 150.185 C 249.206 150.071,247.448 148.816,245.443 147.396 C 243.438 145.975,240.518 143.748,238.955 142.445 C 236.577 140.464,235.986 140.090,235.335 140.156 C 234.329 140.257,233.462 141.368,233.688 142.267 C 233.829 142.831,238.215 146.759,240.365 148.248 C 240.723 148.495,242.012 149.410,243.229 150.281 C 255.785 159.255,268.061 166.146,271.494 166.146 C 275.026 166.146,290.190 157.444,301.760 148.777 C 329.944 127.665,341.218 99.789,330.913 76.693 C 320.650 53.691,290.599 46.451,272.661 62.657 C 271.888 63.356,271.472 63.570,271.229 63.396 C 271.041 63.261,269.883 62.385,268.657 61.450 C 253.874 50.171,233.501 51.655,220.142 64.982 C 204.656 80.432,204.350 105.659,219.392 126.840 C 220.774 128.787,221.489 130.006,221.288 130.074 C 221.109 130.134,217.507 130.229,213.281 130.285 C 205.923 130.384,205.486 130.418,202.924 131.096 C 191.931 134.006,183.032 142.262,179.599 152.734 C 177.969 157.708,178.055 156.149,177.865 183.984 C 177.711 206.361,177.637 209.721,177.262 211.253 C 170.973 236.986,138.394 243.164,123.775 221.396 C 119.786 215.456,118.750 210.817,118.750 198.900 L 118.750 191.667 120.590 191.667 C 123.996 191.667,124.200 191.355,124.210 186.133 C 124.215 183.877,124.248 182.031,124.284 182.030 C 124.495 182.026,131.398 180.985,132.157 180.843 C 133.512 180.589,133.526 181.973,132.177 182.769 C 130.619 183.688,130.366 191.324,131.850 192.601 L 132.581 193.229 140.132 193.229 C 150.174 193.229,149.479 193.634,149.479 187.774 C 149.479 183.747,149.147 182.552,148.028 182.552 C 147.725 182.552,147.659 181.942,147.671 179.232 L 147.686 175.911 150.851 174.353 C 158.551 170.561,162.880 165.425,165.180 157.355 L 165.755 155.339 165.825 110.218 C 165.906 57.271,166.133 60.770,162.195 54.259 C 157.170 45.949,144.692 39.761,127.604 37.104 C 124.953 36.692,113.465 36.366,110.677 36.623 M122.786 39.335 C 144.759 41.210,159.362 49.589,162.567 62.161 L 163.151 64.453 163.151 109.245 C 163.151 159.274,163.283 155.557,161.338 160.170 C 159.080 165.524,155.825 168.753,149.275 172.135 C 144.820 174.436,144.942 174.229,144.840 179.689 C 144.751 184.449,144.948 185.156,146.363 185.156 C 146.867 185.156,146.889 185.290,146.819 187.826 L 146.745 190.495 140.299 190.564 L 133.854 190.634 133.854 187.895 C 133.854 185.364,133.892 185.156,134.356 185.156 C 135.454 185.156,135.677 184.519,135.677 181.380 C 135.677 178.080,135.413 177.446,134.138 177.682 C 129.526 178.534,125.566 179.167,124.841 179.167 C 122.056 179.167,121.615 179.948,121.615 184.879 L 121.615 188.802 120.573 188.802 L 119.531 188.802 119.532 183.008 C 119.534 175.225,119.651 175.033,124.756 174.485 C 126.251 174.324,129.204 173.847,131.319 173.425 C 136.043 172.481,136.062 172.481,136.999 173.417 L 137.760 174.179 137.760 177.700 C 137.760 181.803,137.891 182.031,140.234 182.031 C 142.659 182.031,142.707 181.928,142.714 176.743 C 142.722 170.453,142.884 170.147,147.409 167.844 C 153.237 164.879,156.214 161.566,157.867 156.208 L 158.456 154.297 158.533 120.052 C 158.622 80.442,158.714 81.951,155.936 77.238 C 149.180 65.773,121.363 59.545,100.387 64.802 C 84.847 68.696,77.174 74.497,75.785 83.400 C 75.574 84.753,75.513 95.127,75.571 120.052 L 75.651 154.818 76.384 156.901 C 78.262 162.235,81.196 165.203,87.932 168.579 C 90.931 170.083,91.001 170.252,91.089 176.172 C 91.173 181.887,91.233 182.034,93.453 182.028 C 96.092 182.020,96.292 181.669,96.347 176.953 C 96.401 172.387,96.732 172.203,102.734 173.417 C 104.883 173.852,107.871 174.340,109.375 174.503 C 114.383 175.044,114.569 175.358,114.578 183.268 L 114.583 188.802 113.542 188.802 L 112.500 188.802 112.500 185.038 C 112.500 179.760,112.236 179.392,108.203 179.056 C 107.057 178.961,104.688 178.595,102.937 178.243 C 98.209 177.294,98.177 177.314,98.177 181.267 C 98.177 184.218,98.349 184.723,99.483 185.119 L 100.280 185.396 100.205 187.946 L 100.130 190.495 93.685 190.564 L 87.240 190.634 87.240 187.895 C 87.240 185.364,87.278 185.156,87.742 185.156 C 88.927 185.156,89.063 184.620,89.063 179.916 C 89.063 174.222,89.171 174.433,85.219 172.412 C 76.847 168.129,72.684 163.086,71.241 155.475 C 70.621 152.210,70.623 66.113,71.243 63.075 C 72.117 58.786,74.389 54.541,77.422 51.526 C 85.462 43.536,106.324 37.930,122.786 39.335 M114.627 41.951 C 113.468 42.539,112.401 43.869,112.102 45.097 L 111.933 45.793 108.636 45.878 C 105.645 45.956,105.251 46.023,104.397 46.601 C 101.482 48.574,101.377 52.482,104.189 54.343 L 105.300 55.078 116.387 55.156 C 129.840 55.250,130.029 55.217,131.394 52.578 C 133.321 48.851,130.461 45.833,125.000 45.833 C 122.482 45.833,122.102 45.776,121.983 45.378 C 120.968 41.968,117.643 40.419,114.627 41.951 M118.973 44.395 C 119.339 44.749,119.681 45.501,119.821 46.258 C 120.160 48.088,120.377 48.177,124.514 48.177 C 127.917 48.177,128.132 48.208,128.821 48.800 C 129.839 49.677,129.843 51.265,128.830 52.279 L 128.114 52.995 117.387 53.068 C 104.734 53.155,104.427 53.095,104.427 50.512 C 104.427 48.570,105.291 48.177,109.566 48.177 C 113.598 48.177,114.062 48.021,114.063 46.661 C 114.064 44.042,117.143 42.621,118.973 44.395 M125.008 65.506 C 138.045 67.118,149.746 72.061,153.488 77.537 C 155.943 81.130,156.108 81.979,156.202 91.507 L 156.284 99.812 155.160 99.631 C 152.588 99.218,150.303 98.974,148.926 98.966 C 148.120 98.962,147.105 98.887,146.671 98.800 L 145.880 98.642 145.787 96.131 C 145.653 92.499,144.475 90.513,141.690 89.225 C 140.042 88.462,94.086 88.341,92.429 89.095 C 89.694 90.339,88.342 92.571,88.158 96.144 C 88.014 98.948,88.056 98.908,85.286 98.949 C 83.615 98.973,82.296 99.112,78.816 99.630 L 77.553 99.817 77.656 91.771 C 77.785 81.788,78.409 79.471,81.993 75.691 C 86.353 71.091,99.067 66.477,110.677 65.281 C 113.364 65.005,122.056 65.141,125.008 65.506 M141.014 91.406 C 141.605 91.692,142.374 92.307,142.724 92.773 L 143.359 93.620 143.428 118.577 C 143.506 146.755,143.659 144.603,141.477 146.098 L 140.533 146.745 117.597 146.822 C 93.735 146.903,93.463 146.892,92.060 145.789 C 90.292 144.398,90.376 145.738,90.376 118.880 C 90.376 90.893,90.182 92.861,93.099 91.319 C 94.459 90.600,139.519 90.682,141.014 91.406 M113.495 100.195 C 101.097 113.913,98.977 118.127,100.751 125.521 C 105.318 144.546,133.464 141.297,133.464 121.745 C 133.464 115.654,132.329 113.606,123.218 103.250 C 116.546 95.667,117.357 95.922,113.495 100.195 M108.286 113.614 C 108.338 114.068,108.090 114.795,107.619 115.567 C 103.192 122.824,107.314 131.696,115.649 132.851 C 118.986 133.313,119.512 135.421,116.289 135.414 C 105.921 135.389,99.573 122.341,105.769 113.788 C 106.740 112.448,108.141 112.351,108.286 113.614 M300.651 114.442 C 295.187 115.179,293.018 115.625,276.631 119.377 C 252.658 124.865,239.303 124.452,225.930 117.810 C 222.460 116.087,222.367 116.406,225.192 120.361 C 230.945 128.415,237.785 135.537,244.673 140.647 C 254.227 147.734,268.565 155.862,271.484 155.846 C 275.123 155.825,292.530 145.258,301.953 137.350 C 308.603 131.769,319.792 118.608,319.792 116.367 C 319.792 114.635,308.003 113.449,300.651 114.442 " stroke="none" fill="#ec0a2f" fill-rule="evenodd"></path><path id="path1" d="M0.000 133.333 L 0.000 266.667 200.000 266.667 L 400.000 266.667 400.000 133.333 L 400.000 0.000 200.000 0.000 L 0.000 0.000 0.000 133.333 M124.871 36.585 C 131.403 37.332,136.009 38.301,141.016 39.982 C 154.514 44.515,160.975 49.551,164.390 58.203 C 166.263 62.951,166.178 60.326,166.092 110.417 L 166.016 155.339 165.432 157.422 C 163.169 165.498,158.624 170.812,150.508 174.871 C 149.154 175.548,148.006 176.139,147.957 176.184 C 147.414 176.676,147.908 182.143,148.524 182.465 C 149.619 183.039,149.740 183.578,149.740 187.894 L 149.740 191.967 148.978 192.728 L 148.217 193.490 140.502 193.490 C 134.138 193.490,132.654 193.421,132.028 193.097 C 129.907 192.000,130.302 182.292,132.467 182.292 C 132.666 182.292,132.813 182.003,132.813 181.610 C 132.813 181.037,132.722 180.953,132.242 181.078 C 131.928 181.160,130.199 181.420,128.400 181.656 C 126.602 181.892,124.984 182.127,124.805 182.180 C 124.562 182.251,124.479 183.302,124.479 186.285 C 124.479 191.481,124.402 191.611,121.278 191.721 L 119.141 191.797 119.147 200.260 C 119.154 210.728,119.710 213.735,122.614 219.010 C 123.219 220.109,123.557 220.641,125.097 222.917 C 126.038 224.307,130.425 228.435,132.102 229.508 C 149.714 240.774,171.977 231.700,177.026 211.198 C 177.387 209.730,177.465 206.129,177.610 184.115 C 177.757 161.801,177.830 158.487,178.210 156.771 C 180.833 144.949,189.158 135.383,199.972 131.765 C 204.555 130.232,206.799 129.948,214.332 129.948 C 218.051 129.948,221.094 129.847,221.094 129.723 C 221.094 129.600,220.726 129.043,220.276 128.486 C 207.920 113.192,204.608 91.170,212.296 75.436 C 223.089 53.351,251.876 46.624,269.872 61.981 L 271.354 63.245 273.763 61.450 C 298.873 42.739,332.990 59.688,334.801 91.773 C 336.044 113.799,322.111 135.636,295.311 153.664 C 283.963 161.298,275.048 166.119,271.858 166.347 C 268.844 166.563,257.660 160.731,247.656 153.727 C 246.582 152.975,245.140 151.975,244.451 151.505 C 242.618 150.255,237.421 146.303,235.537 144.725 C 233.194 142.764,232.789 141.666,233.973 140.483 C 235.210 139.246,235.866 139.490,239.583 142.570 C 240.801 143.579,242.503 144.948,243.366 145.611 C 245.236 147.049,257.345 155.198,258.464 155.771 C 258.893 155.991,260.299 156.789,261.589 157.545 C 265.435 159.800,270.565 162.240,271.460 162.240 C 273.247 162.240,283.340 156.652,291.875 150.939 C 303.689 143.030,310.768 136.719,318.269 127.410 C 330.683 112.003,334.142 92.178,326.978 77.489 C 324.670 72.757,320.049 66.974,316.808 64.761 C 311.613 61.214,308.690 59.796,304.427 58.757 C 293.325 56.050,282.200 59.078,273.480 67.180 C 271.779 68.761,271.048 68.663,268.742 66.547 C 257.193 55.949,240.084 54.909,227.219 64.023 C 209.232 76.766,207.213 103.325,222.613 124.609 C 225.722 128.906,225.580 128.629,225.457 130.154 C 225.174 133.661,224.375 133.947,214.323 134.148 C 209.811 134.238,205.592 134.436,204.948 134.588 C 193.012 137.397,184.233 146.626,182.154 158.551 C 181.836 160.372,181.771 164.734,181.771 184.183 C 181.771 212.654,181.665 213.640,177.847 220.787 C 164.437 245.883,127.878 243.844,117.302 217.409 C 115.307 212.422,114.844 208.923,114.844 198.838 L 114.844 191.667 112.874 191.667 C 109.588 191.667,109.375 191.308,109.375 185.768 L 109.375 182.031 108.367 182.031 C 107.491 182.031,104.211 181.548,102.018 181.096 C 101.384 180.965,101.302 181.025,101.302 181.620 C 101.302 182.028,101.448 182.292,101.674 182.292 C 102.817 182.292,103.125 183.465,103.125 187.816 L 103.125 191.967 102.364 192.728 L 101.603 193.490 93.887 193.490 C 83.619 193.490,84.066 193.779,84.182 187.195 C 84.247 183.493,84.657 182.292,85.853 182.292 C 86.120 182.292,86.198 181.597,86.198 179.217 L 86.198 176.142 85.091 175.668 C 76.677 172.066,70.819 165.686,68.696 157.813 L 68.099 155.599 68.099 109.115 L 68.099 62.630 68.829 60.300 C 71.041 53.237,75.274 48.207,82.069 44.564 C 94.198 38.062,110.771 34.972,124.871 36.585 M110.807 39.589 C 109.375 39.716,106.700 40.068,104.863 40.371 C 99.817 41.202,96.522 42.101,90.104 44.400 C 80.024 48.010,74.044 53.723,71.704 61.980 C 71.246 63.594,71.224 65.769,71.224 109.375 L 71.224 155.078 71.812 157.107 C 73.799 163.963,77.915 168.559,85.296 172.164 C 89.368 174.153,89.193 173.811,89.193 179.773 L 89.193 184.766 88.352 185.156 L 87.511 185.547 87.506 187.960 L 87.500 190.374 93.685 190.304 L 99.870 190.234 99.945 187.826 C 100.009 185.770,99.959 185.417,99.607 185.417 C 98.415 185.417,97.917 184.272,97.917 181.535 C 97.917 177.286,98.183 177.054,102.146 177.840 C 103.615 178.132,106.221 178.560,107.937 178.791 C 112.675 179.431,112.760 179.541,112.760 185.018 L 112.760 188.542 113.542 188.542 L 114.323 188.542 114.323 183.195 C 114.323 175.620,114.147 175.333,109.173 174.746 C 107.637 174.565,104.974 174.121,103.255 173.760 C 96.614 172.365,96.527 172.417,96.400 177.869 C 96.303 181.993,96.294 182.011,94.224 182.172 C 91.007 182.422,90.894 182.220,90.889 176.224 C 90.884 170.335,90.896 170.354,85.957 167.811 C 80.919 165.218,77.729 161.674,76.082 156.844 L 75.391 154.818 75.317 119.661 C 75.236 80.319,75.140 82.524,77.100 78.516 C 79.477 73.653,82.976 70.892,90.926 67.606 C 108.574 60.312,130.503 61.025,147.204 69.435 C 153.341 72.526,156.760 76.418,158.269 82.031 C 158.990 84.714,158.968 153.174,158.245 155.729 C 156.663 161.320,153.473 165.091,147.993 167.847 C 142.982 170.367,142.983 170.367,142.974 176.882 C 142.968 182.275,142.923 182.366,140.324 182.267 C 137.613 182.163,137.509 181.993,137.504 177.657 C 137.498 172.586,137.203 172.371,131.899 173.557 C 130.325 173.909,127.513 174.381,125.651 174.605 C 119.766 175.314,119.792 175.277,119.792 182.918 L 119.792 188.542 120.573 188.542 L 121.354 188.542 121.354 184.749 C 121.354 179.871,121.606 179.346,124.089 179.044 C 126.978 178.692,129.177 178.345,131.950 177.804 C 135.981 177.016,135.979 177.015,135.880 181.492 L 135.807 184.766 134.959 185.156 L 134.111 185.547 134.178 187.891 L 134.245 190.234 140.365 190.234 L 146.484 190.234 146.559 187.856 C 146.632 185.504,146.626 185.476,145.976 185.313 C 144.636 184.976,144.469 184.287,144.573 179.498 C 144.693 173.975,144.511 174.270,149.315 171.811 C 156.705 168.027,160.384 163.660,162.425 156.250 C 163.150 153.615,163.146 65.115,162.421 62.500 C 159.713 52.743,153.846 47.620,140.161 43.062 C 131.462 40.165,119.815 38.787,110.807 39.589 M120.039 42.018 C 120.815 42.531,121.327 43.155,121.775 44.132 L 122.409 45.518 125.462 45.619 C 130.943 45.801,133.547 48.872,131.546 52.795 C 130.181 55.470,129.913 55.516,116.365 55.420 L 104.996 55.339 103.995 54.530 C 101.014 52.120,101.299 47.880,104.557 46.150 C 105.104 45.860,106.290 45.702,108.505 45.624 L 111.671 45.512 112.090 44.415 C 113.261 41.349,117.223 40.154,120.039 42.018 M115.952 44.018 C 115.175 44.330,114.325 45.767,114.324 46.770 C 114.322 48.254,113.810 48.438,109.668 48.438 C 106.085 48.438,105.945 48.458,105.327 49.077 C 104.449 49.954,104.464 51.261,105.360 52.103 L 106.032 52.734 117.071 52.734 L 128.111 52.734 128.698 52.147 C 129.524 51.320,129.508 49.706,128.665 48.975 C 128.103 48.487,127.709 48.438,124.422 48.438 C 120.163 48.438,119.915 48.348,119.670 46.709 C 119.313 44.331,117.835 43.261,115.952 44.018 M110.677 65.528 C 99.120 66.594,85.497 71.739,81.614 76.506 C 78.455 80.384,78.060 82.004,77.927 91.635 L 77.818 99.546 78.762 99.369 C 79.585 99.214,86.865 98.457,87.666 98.443 C 87.860 98.439,87.999 97.520,88.070 95.768 C 88.221 92.024,89.591 89.908,92.528 88.883 C 94.312 88.261,139.351 88.145,141.378 88.757 C 144.208 89.612,146.094 92.714,146.094 96.513 L 146.094 98.400 147.461 98.535 C 153.140 99.096,154.648 99.262,155.293 99.395 L 156.029 99.547 155.937 91.245 C 155.834 82.065,155.723 81.412,153.735 78.348 C 148.327 70.014,127.920 63.938,110.677 65.528 M92.760 91.856 C 90.476 93.337,90.625 91.451,90.625 118.815 C 90.625 144.596,90.583 143.784,91.997 145.250 C 93.322 146.624,93.098 146.612,117.188 146.607 C 142.154 146.603,141.020 146.679,142.402 144.921 C 143.487 143.542,143.503 143.120,143.430 118.312 C 143.351 91.584,143.495 93.533,141.492 92.006 L 140.535 91.276 117.201 91.207 L 93.867 91.138 92.760 91.856 M118.576 97.732 C 130.079 109.689,133.520 114.973,133.794 121.103 C 134.491 136.720,115.308 144.603,104.531 133.127 C 98.416 126.616,98.674 117.144,105.177 109.375 C 115.686 96.821,116.782 95.868,118.576 97.732 M105.641 114.518 C 100.301 123.330,106.326 135.128,116.179 135.153 C 118.580 135.159,118.632 133.509,116.240 133.210 C 107.106 132.069,102.640 122.895,107.503 115.264 C 108.412 113.836,108.292 113.021,107.171 113.021 C 106.692 113.021,106.339 113.365,105.641 114.518 M315.782 114.420 C 321.274 115.557,321.280 115.679,316.182 122.396 C 307.001 134.493,297.010 142.918,281.510 151.636 C 272.215 156.865,271.764 156.944,266.406 154.302 C 247.801 145.125,232.045 131.961,223.591 118.530 C 222.349 116.556,223.223 116.113,225.745 117.439 C 236.249 122.965,249.022 124.283,265.104 121.500 C 270.333 120.596,273.521 119.903,286.068 116.947 C 298.636 113.986,309.303 113.079,315.782 114.420 " stroke="none" fill="#fbfbfb" fill-rule="evenodd"></path><path id="path2" d="M114.261 36.382 C 114.585 36.444,115.054 36.442,115.303 36.377 C 115.551 36.312,115.286 36.261,114.714 36.264 C 114.141 36.266,113.937 36.320,114.261 36.382 M119.206 36.382 C 119.528 36.444,120.055 36.444,120.378 36.382 C 120.700 36.320,120.436 36.269,119.792 36.269 C 119.147 36.269,118.883 36.320,119.206 36.382 M158.583 49.544 C 159.662 50.694,159.896 50.901,159.896 50.705 C 159.896 50.663,159.339 50.107,158.659 49.468 L 157.422 48.307 158.583 49.544 M244.730 53.830 C 245.054 53.892,245.522 53.890,245.771 53.825 C 246.020 53.760,245.755 53.709,245.182 53.712 C 244.609 53.714,244.406 53.768,244.730 53.830 M246.810 53.830 C 247.132 53.892,247.660 53.892,247.982 53.830 C 248.304 53.768,248.040 53.717,247.396 53.717 C 246.751 53.717,246.488 53.768,246.810 53.830 M297.461 53.825 C 297.712 53.891,298.122 53.891,298.372 53.825 C 298.623 53.760,298.418 53.706,297.917 53.706 C 297.415 53.706,297.210 53.760,297.461 53.825 M110.872 55.403 C 113.486 55.446,117.764 55.446,120.378 55.403 C 122.992 55.361,120.853 55.326,115.625 55.326 C 110.397 55.326,108.258 55.361,110.872 55.403 M245.515 57.743 C 246.127 57.798,247.065 57.797,247.598 57.741 C 248.131 57.685,247.630 57.640,246.484 57.641 C 245.339 57.642,244.902 57.688,245.515 57.743 M295.775 57.743 C 296.388 57.798,297.325 57.797,297.858 57.741 C 298.392 57.685,297.891 57.640,296.745 57.641 C 295.599 57.642,295.163 57.688,295.775 57.743 M166.013 109.375 C 166.013 133.223,166.043 142.979,166.081 131.055 C 166.118 119.131,166.118 99.619,166.081 87.695 C 166.043 75.771,166.013 85.527,166.013 109.375 M222.656 67.578 C 222.024 68.223,221.565 68.750,221.636 68.750 C 221.708 68.750,222.284 68.223,222.917 67.578 C 223.549 66.934,224.008 66.406,223.937 66.406 C 223.865 66.406,223.289 66.934,222.656 67.578 M152.604 72.998 C 152.604 73.043,152.985 73.424,153.451 73.845 L 154.297 74.609 153.532 73.763 C 152.819 72.974,152.604 72.797,152.604 72.998 M105.814 91.081 C 112.091 91.120,122.286 91.120,128.470 91.081 C 134.654 91.042,129.518 91.010,117.057 91.010 C 104.596 91.010,99.537 91.042,105.814 91.081 M208.165 93.880 C 208.165 95.169,208.209 95.729,208.263 95.125 C 208.318 94.521,208.318 93.466,208.265 92.781 C 208.211 92.097,208.166 92.591,208.165 93.880 M330.790 93.750 C 330.790 94.251,330.843 94.456,330.909 94.206 C 330.974 93.955,330.974 93.545,330.909 93.294 C 330.843 93.044,330.790 93.249,330.790 93.750 M145.921 96.615 C 145.921 97.689,145.967 98.128,146.023 97.591 C 146.079 97.054,146.079 96.175,146.023 95.638 C 145.967 95.101,145.921 95.540,145.921 96.615 M90.489 118.750 C 90.489 131.855,90.521 137.217,90.560 130.664 C 90.599 124.111,90.599 113.389,90.560 106.836 C 90.521 100.283,90.489 105.645,90.489 118.750 M107.292 131.380 C 107.778 131.882,108.234 132.292,108.305 132.292 C 108.377 132.292,108.038 131.882,107.552 131.380 C 107.066 130.879,106.610 130.469,106.538 130.469 C 106.467 130.469,106.806 130.879,107.292 131.380 M235.026 132.552 C 236.021 133.555,236.894 134.375,236.965 134.375 C 237.037 134.375,236.281 133.555,235.286 132.552 C 234.292 131.549,233.419 130.729,233.347 130.729 C 233.276 130.729,234.031 131.549,235.026 132.552 M313.528 138.737 L 312.630 139.714 313.607 138.816 C 314.516 137.981,314.703 137.760,314.504 137.760 C 314.461 137.760,314.021 138.200,313.528 138.737 M75.341 151.432 C 75.343 152.292,75.391 152.612,75.449 152.144 C 75.507 151.676,75.506 150.973,75.446 150.581 C 75.387 150.190,75.340 150.573,75.341 151.432 M177.729 183.984 C 177.729 196.302,177.761 201.303,177.799 195.098 C 177.838 188.892,177.838 178.814,177.799 172.702 C 177.760 166.590,177.729 171.667,177.729 183.984 M181.635 184.245 C 181.635 196.563,181.667 201.563,181.706 195.358 C 181.745 189.153,181.745 179.075,181.706 172.962 C 181.667 166.850,181.635 171.927,181.635 184.245 M86.296 179.167 C 86.296 180.814,86.339 181.488,86.390 180.664 C 86.442 179.840,86.442 178.493,86.390 177.669 C 86.339 176.846,86.296 177.520,86.296 179.167 M149.583 187.891 C 149.584 190.039,149.624 190.883,149.673 189.767 C 149.722 188.650,149.722 186.892,149.672 185.860 C 149.623 184.829,149.583 185.742,149.583 187.891 M102.965 188.542 C 102.965 190.332,103.007 191.064,103.057 190.169 C 103.108 189.274,103.108 187.809,103.057 186.914 C 103.007 186.019,102.965 186.751,102.965 188.542 M90.705 193.424 C 92.540 193.469,95.469 193.469,97.216 193.424 C 98.962 193.379,97.461 193.342,93.880 193.342 C 90.299 193.342,88.871 193.379,90.705 193.424 M137.956 193.423 C 139.424 193.470,141.826 193.470,143.294 193.423 C 144.762 193.377,143.561 193.339,140.625 193.339 C 137.689 193.339,136.488 193.377,137.956 193.423 M124.219 228.206 C 124.219 228.251,124.600 228.632,125.065 229.053 L 125.911 229.818 125.147 228.971 C 124.434 228.182,124.219 228.005,124.219 228.206 M146.553 238.465 C 146.876 238.528,147.345 238.525,147.594 238.460 C 147.843 238.395,147.578 238.344,147.005 238.347 C 146.432 238.350,146.229 238.403,146.553 238.465 " stroke="none" fill="#f49aa6" fill-rule="evenodd"></path><path id="path3" d="M112.048 36.385 C 112.444 36.445,113.030 36.443,113.350 36.381 C 113.670 36.319,113.346 36.270,112.630 36.272 C 111.914 36.274,111.652 36.325,112.048 36.385 M121.159 36.377 C 121.410 36.443,121.820 36.443,122.070 36.377 C 122.321 36.312,122.116 36.258,121.615 36.258 C 121.113 36.258,120.908 36.312,121.159 36.377 M112.044 39.502 C 112.295 39.568,112.705 39.568,112.956 39.502 C 113.206 39.437,113.001 39.383,112.500 39.383 C 111.999 39.383,111.794 39.437,112.044 39.502 M111.719 45.269 C 111.719 45.478,110.847 45.590,108.919 45.628 L 106.120 45.683 108.832 45.768 C 111.339 45.846,112.386 45.633,111.897 45.143 C 111.799 45.045,111.719 45.102,111.719 45.269 M122.365 45.648 C 122.479 45.760,123.792 45.818,125.283 45.776 L 127.995 45.700 125.077 45.571 C 123.472 45.501,122.252 45.535,122.365 45.648 M109.896 48.177 L 106.120 48.329 109.815 48.383 C 112.059 48.416,113.574 48.335,113.672 48.177 C 113.760 48.034,113.797 47.941,113.752 47.971 C 113.708 48.001,111.973 48.093,109.896 48.177 M122.189 48.370 C 123.150 48.420,124.790 48.420,125.835 48.371 C 126.880 48.321,126.094 48.280,124.089 48.280 C 122.083 48.279,121.229 48.320,122.189 48.370 M77.330 51.758 L 76.432 52.734 77.409 51.837 C 77.946 51.343,78.385 50.904,78.385 50.860 C 78.385 50.662,78.165 50.849,77.330 51.758 M115.299 62.693 C 116.195 62.744,117.660 62.744,118.555 62.693 C 119.450 62.642,118.717 62.600,116.927 62.600 C 115.137 62.600,114.404 62.642,115.299 62.693 M165.946 65.365 C 165.946 65.866,165.999 66.071,166.065 65.820 C 166.130 65.570,166.130 65.160,166.065 64.909 C 165.999 64.658,165.946 64.863,165.946 65.365 M115.570 65.297 C 116.471 65.348,117.877 65.348,118.695 65.296 C 119.513 65.245,118.776 65.203,117.057 65.204 C 115.339 65.204,114.669 65.246,115.570 65.297 M122.461 65.544 C 122.712 65.610,123.122 65.610,123.372 65.544 C 123.623 65.479,123.418 65.425,122.917 65.425 C 122.415 65.425,122.210 65.479,122.461 65.544 M273.812 66.732 L 273.047 67.578 273.893 66.813 C 274.682 66.100,274.859 65.885,274.658 65.885 C 274.613 65.885,274.232 66.266,273.812 66.732 M269.271 67.057 C 269.757 67.559,270.213 67.969,270.284 67.969 C 270.356 67.969,270.017 67.559,269.531 67.057 C 269.045 66.556,268.589 66.146,268.518 66.146 C 268.446 66.146,268.785 66.556,269.271 67.057 M70.960 109.375 C 70.960 132.793,70.991 142.373,71.029 130.664 C 71.066 118.955,71.066 99.795,71.029 88.086 C 70.991 76.377,70.960 85.957,70.960 109.375 M150.781 74.821 C 150.781 74.866,151.162 75.247,151.628 75.667 L 152.474 76.432 151.709 75.586 C 150.996 74.797,150.781 74.620,150.781 74.821 M158.720 118.880 C 158.720 137.643,158.751 145.281,158.789 135.852 C 158.827 126.424,158.827 111.072,158.789 101.738 C 158.751 92.403,158.720 100.117,158.720 118.880 M155.933 92.578 C 155.892 96.517,155.947 99.740,156.055 99.740 C 156.162 99.740,156.250 96.517,156.250 92.578 C 156.250 88.639,156.195 85.417,156.128 85.417 C 156.061 85.417,155.973 88.639,155.933 92.578 M105.814 88.477 C 112.091 88.515,122.286 88.515,128.470 88.476 C 134.654 88.438,129.518 88.406,117.057 88.406 C 104.596 88.406,99.537 88.438,105.814 88.477 M334.696 91.667 C 334.696 92.168,334.749 92.373,334.815 92.122 C 334.880 91.872,334.880 91.462,334.815 91.211 C 334.749 90.960,334.696 91.165,334.696 91.667 M212.040 93.750 C 212.040 94.251,212.093 94.456,212.159 94.206 C 212.224 93.955,212.224 93.545,212.159 93.294 C 212.093 93.044,212.040 93.249,212.040 93.750 M334.696 95.833 C 334.696 96.335,334.749 96.540,334.815 96.289 C 334.880 96.038,334.880 95.628,334.815 95.378 C 334.749 95.127,334.696 95.332,334.696 95.833 M86.784 98.617 C 87.035 98.683,87.445 98.683,87.695 98.617 C 87.946 98.552,87.741 98.498,87.240 98.498 C 86.738 98.498,86.533 98.552,86.784 98.617 M111.572 101.888 L 110.807 102.734 111.654 101.970 C 112.119 101.549,112.500 101.168,112.500 101.123 C 112.500 100.922,112.285 101.099,111.572 101.888 M100.074 121.745 C 100.076 122.461,100.127 122.723,100.187 122.327 C 100.247 121.931,100.245 121.345,100.183 121.025 C 100.122 120.705,100.073 121.029,100.074 121.745 M248.893 123.107 C 249.502 123.162,250.498 123.162,251.107 123.107 C 251.715 123.053,251.217 123.008,250.000 123.008 C 248.783 123.008,248.285 123.053,248.893 123.107 M312.500 133.984 C 311.867 134.629,311.408 135.156,311.480 135.156 C 311.552 135.156,312.128 134.629,312.760 133.984 C 313.393 133.340,313.852 132.813,313.780 132.813 C 313.709 132.813,313.133 133.340,312.500 133.984 M212.044 134.049 C 213.870 134.094,216.859 134.094,218.685 134.049 C 220.511 134.004,219.017 133.967,215.365 133.967 C 211.712 133.967,210.218 134.004,212.044 134.049 M237.760 135.286 C 238.246 135.788,238.702 136.198,238.774 136.198 C 238.846 136.198,238.507 135.788,238.021 135.286 C 237.535 134.785,237.079 134.375,237.007 134.375 C 236.936 134.375,237.275 134.785,237.760 135.286 M315.739 136.523 L 314.974 137.370 315.820 136.605 C 316.609 135.892,316.786 135.677,316.585 135.677 C 316.540 135.677,316.160 136.058,315.739 136.523 M307.930 138.607 L 306.901 139.714 308.008 138.684 C 309.037 137.727,309.234 137.500,309.037 137.500 C 308.995 137.500,308.497 137.998,307.930 138.607 M187.226 139.779 L 186.328 140.755 187.305 139.858 C 188.214 139.022,188.401 138.802,188.202 138.802 C 188.159 138.802,187.719 139.242,187.226 139.779 M165.946 153.385 C 165.946 153.887,165.999 154.092,166.065 153.841 C 166.130 153.590,166.130 153.180,166.065 152.930 C 165.999 152.679,165.946 152.884,165.946 153.385 M157.145 166.211 L 156.380 167.057 157.227 166.292 C 157.692 165.872,158.073 165.491,158.073 165.446 C 158.073 165.245,157.858 165.422,157.145 166.211 M90.992 176.693 C 90.992 179.128,91.031 180.159,91.079 178.984 C 91.127 177.810,91.127 175.817,91.080 174.557 C 91.032 173.297,90.992 174.258,90.992 176.693 M137.600 178.125 C 137.600 179.915,137.642 180.648,137.693 179.753 C 137.744 178.857,137.744 177.393,137.693 176.497 C 137.642 175.602,137.600 176.335,137.600 178.125 M144.637 180.078 C 144.637 182.370,144.677 183.272,144.725 182.084 C 144.774 180.896,144.773 179.021,144.725 177.917 C 144.676 176.814,144.636 177.786,144.637 180.078 M147.747 179.167 C 147.747 180.384,147.792 180.882,147.847 180.273 C 147.902 179.665,147.902 178.669,147.847 178.060 C 147.792 177.451,147.747 177.949,147.747 179.167 M119.653 183.203 L 119.661 188.672 120.443 188.696 C 121.169 188.719,121.174 188.713,120.513 188.615 L 119.802 188.509 119.723 183.122 L 119.645 177.734 119.653 183.203 M98.014 181.380 C 98.015 182.956,98.058 183.567,98.109 182.738 C 98.161 181.909,98.161 180.620,98.108 179.873 C 98.056 179.127,98.013 179.805,98.014 181.380 M112.619 184.896 L 112.630 188.672 113.542 188.706 C 114.439 188.739,114.440 188.738,113.614 188.625 L 112.775 188.510 112.691 184.815 L 112.607 181.120 112.619 184.896 M140.173 182.218 C 140.569 182.278,141.155 182.276,141.475 182.215 C 141.795 182.153,141.471 182.104,140.755 182.106 C 140.039 182.108,139.777 182.158,140.173 182.218 M109.479 186.068 C 109.480 188.216,109.520 189.060,109.569 187.944 C 109.618 186.827,109.617 185.069,109.568 184.038 C 109.519 183.006,109.479 183.919,109.479 186.068 M130.831 187.760 C 130.831 189.694,130.872 190.485,130.922 189.518 C 130.972 188.551,130.972 186.969,130.922 186.003 C 130.872 185.036,130.831 185.827,130.831 187.760 M84.213 187.500 C 84.213 189.147,84.255 189.821,84.307 188.997 C 84.359 188.174,84.359 186.826,84.307 186.003 C 84.255 185.179,84.213 185.853,84.213 187.500 M87.350 185.504 C 87.277 185.695,87.257 186.837,87.306 188.043 L 87.394 190.234 87.447 187.845 C 87.492 185.815,87.569 185.437,87.956 185.336 C 88.383 185.224,88.382 185.215,87.948 185.186 C 87.692 185.170,87.424 185.313,87.350 185.504 M134.028 185.330 C 133.788 185.570,133.808 190.045,134.049 190.195 C 134.157 190.262,134.208 189.224,134.162 187.889 C 134.089 185.722,134.131 185.448,134.553 185.339 C 134.913 185.246,134.928 185.209,134.614 185.186 C 134.387 185.170,134.123 185.234,134.028 185.330 M114.959 199.349 C 114.959 203.646,114.995 205.440,115.038 203.336 C 115.082 201.233,115.082 197.717,115.039 195.524 C 114.995 193.331,114.959 195.052,114.959 199.349 M86.263 193.409 C 86.514 193.474,86.924 193.474,87.174 193.409 C 87.425 193.343,87.220 193.290,86.719 193.290 C 86.217 193.290,86.012 193.343,86.263 193.409 M133.789 193.413 C 134.111 193.475,134.639 193.475,134.961 193.413 C 135.283 193.351,135.020 193.300,134.375 193.300 C 133.730 193.300,133.467 193.351,133.789 193.413 M146.423 193.416 C 146.819 193.476,147.405 193.474,147.725 193.412 C 148.045 193.351,147.721 193.302,147.005 193.304 C 146.289 193.306,146.027 193.356,146.423 193.416 M181.576 207.422 C 181.579 207.995,181.632 208.199,181.695 207.875 C 181.757 207.551,181.755 207.082,181.689 206.833 C 181.624 206.584,181.573 206.849,181.576 207.422 M127.344 225.651 C 128.122 226.439,128.817 227.083,128.888 227.083 C 128.960 227.083,128.382 226.439,127.604 225.651 C 126.826 224.863,126.131 224.219,126.059 224.219 C 125.988 224.219,126.566 224.863,127.344 225.651 M147.855 234.559 C 148.179 234.621,148.647 234.619,148.896 234.554 C 149.145 234.489,148.880 234.438,148.307 234.441 C 147.734 234.444,147.531 234.497,147.855 234.559 " stroke="none" fill="#fac6ce" fill-rule="evenodd"></path><path id="path4" d="M116.341 36.386 C 116.807 36.444,117.568 36.444,118.034 36.386 C 118.499 36.329,118.118 36.281,117.188 36.281 C 116.257 36.281,115.876 36.329,116.341 36.386 M110.482 36.638 C 110.732 36.703,111.143 36.703,111.393 36.638 C 111.644 36.572,111.439 36.519,110.938 36.519 C 110.436 36.519,110.231 36.572,110.482 36.638 M114.909 39.256 C 116.019 39.305,117.835 39.305,118.945 39.256 C 120.055 39.207,119.147 39.167,116.927 39.167 C 114.707 39.167,113.799 39.207,114.909 39.256 M75.260 49.609 C 74.628 50.254,74.169 50.781,74.241 50.781 C 74.312 50.781,74.888 50.254,75.521 49.609 C 76.153 48.965,76.612 48.438,76.541 48.438 C 76.469 48.438,75.893 48.965,75.260 49.609 M131.831 50.521 C 131.831 51.022,131.885 51.227,131.950 50.977 C 132.016 50.726,132.016 50.316,131.950 50.065 C 131.885 49.814,131.831 50.020,131.831 50.521 M111.523 53.060 C 114.495 53.101,119.359 53.101,122.331 53.060 C 125.303 53.018,122.871 52.984,116.927 52.984 C 110.983 52.984,108.551 53.018,111.523 53.060 M125.590 55.395 C 125.985 55.455,126.571 55.453,126.892 55.392 C 127.212 55.330,126.888 55.281,126.172 55.283 C 125.456 55.285,125.194 55.335,125.590 55.395 M243.294 57.732 C 243.545 57.797,243.955 57.797,244.206 57.732 C 244.456 57.666,244.251 57.613,243.750 57.613 C 243.249 57.613,243.044 57.666,243.294 57.732 M293.555 57.732 C 293.805 57.797,294.215 57.797,294.466 57.732 C 294.717 57.666,294.512 57.613,294.010 57.613 C 293.509 57.613,293.304 57.666,293.555 57.732 M112.044 62.940 C 112.295 63.005,112.705 63.005,112.956 62.940 C 113.206 62.874,113.001 62.821,112.500 62.821 C 111.999 62.821,111.794 62.874,112.044 62.940 M219.910 64.909 L 218.880 66.016 219.987 64.986 C 221.016 64.029,221.213 63.802,221.016 63.802 C 220.974 63.802,220.476 64.300,219.910 64.909 M121.419 65.284 C 121.670 65.349,122.080 65.349,122.331 65.284 C 122.581 65.218,122.376 65.165,121.875 65.165 C 121.374 65.165,121.169 65.218,121.419 65.284 M68.096 109.375 C 68.096 133.652,68.127 143.584,68.164 131.445 C 68.201 119.307,68.201 99.443,68.164 87.305 C 68.127 75.166,68.096 85.098,68.096 109.375 M319.141 66.667 C 319.700 67.240,320.216 67.708,320.288 67.708 C 320.360 67.708,319.960 67.240,319.401 66.667 C 318.842 66.094,318.325 65.625,318.254 65.625 C 318.182 65.625,318.581 66.094,319.141 66.667 M163.148 109.375 C 163.148 133.366,163.179 143.180,163.216 131.185 C 163.254 119.189,163.254 99.561,163.216 87.565 C 163.179 75.570,163.148 85.384,163.148 109.375 M273.423 66.862 L 272.526 67.839 273.503 66.941 C 274.412 66.106,274.599 65.885,274.400 65.885 C 274.357 65.885,273.917 66.325,273.423 66.862 M269.531 67.057 C 270.017 67.559,270.473 67.969,270.545 67.969 C 270.616 67.969,270.278 67.559,269.792 67.057 C 269.306 66.556,268.850 66.146,268.778 66.146 C 268.706 66.146,269.045 66.556,269.531 67.057 M320.573 68.050 C 320.573 68.095,320.954 68.476,321.419 68.897 L 322.266 69.661 321.501 68.815 C 320.788 68.026,320.573 67.849,320.573 68.050 M80.455 73.893 L 79.557 74.870 80.534 73.972 C 81.071 73.479,81.510 73.039,81.510 72.996 C 81.510 72.797,81.290 72.984,80.455 73.893 M151.563 75.391 C 152.048 75.892,152.505 76.302,152.576 76.302 C 152.648 76.302,152.309 75.892,151.823 75.391 C 151.337 74.889,150.881 74.479,150.809 74.479 C 150.738 74.479,151.077 74.889,151.563 75.391 M75.387 117.708 C 75.387 135.540,75.418 142.835,75.456 133.919 C 75.494 125.003,75.494 110.413,75.456 101.497 C 75.418 92.581,75.387 99.876,75.387 117.708 M77.719 92.578 C 77.719 96.589,77.755 98.193,77.799 96.143 C 77.843 94.093,77.843 90.812,77.799 88.851 C 77.755 86.891,77.719 88.568,77.719 92.578 M94.206 88.725 C 94.528 88.788,95.055 88.788,95.378 88.725 C 95.700 88.663,95.436 88.613,94.792 88.613 C 94.147 88.613,93.883 88.663,94.206 88.725 M330.800 91.927 C 330.800 92.572,330.851 92.835,330.913 92.513 C 330.975 92.191,330.975 91.663,330.913 91.341 C 330.851 91.019,330.800 91.283,330.800 91.927 M88.081 95.052 C 88.081 95.553,88.135 95.758,88.200 95.508 C 88.266 95.257,88.266 94.847,88.200 94.596 C 88.135 94.346,88.081 94.551,88.081 95.052 M330.804 95.703 C 330.806 96.419,330.856 96.681,330.916 96.285 C 330.976 95.890,330.974 95.304,330.912 94.983 C 330.851 94.663,330.802 94.987,330.804 95.703 M212.040 96.615 C 212.040 97.116,212.093 97.321,212.159 97.070 C 212.224 96.820,212.224 96.410,212.159 96.159 C 212.093 95.908,212.040 96.113,212.040 96.615 M114.048 99.414 L 113.151 100.391 114.128 99.493 C 114.665 99.000,115.104 98.560,115.104 98.517 C 115.104 98.318,114.884 98.505,114.048 99.414 M85.875 98.882 C 86.199 98.944,86.668 98.942,86.917 98.877 C 87.166 98.812,86.901 98.761,86.328 98.764 C 85.755 98.766,85.551 98.820,85.875 98.882 M147.331 98.882 C 147.653 98.944,148.180 98.944,148.503 98.882 C 148.825 98.820,148.561 98.769,147.917 98.769 C 147.272 98.769,147.008 98.820,147.331 98.882 M120.573 100.342 C 120.573 100.387,120.954 100.768,121.419 101.188 L 122.266 101.953 121.501 101.107 C 120.788 100.318,120.573 100.141,120.573 100.342 M124.219 104.509 C 124.219 104.553,124.600 104.934,125.065 105.355 L 125.911 106.120 125.147 105.273 C 124.434 104.485,124.219 104.307,124.219 104.509 M306.836 113.993 C 307.516 114.047,308.630 114.047,309.310 113.993 C 309.990 113.940,309.434 113.896,308.073 113.896 C 306.712 113.896,306.156 113.940,306.836 113.993 M133.668 121.745 C 133.670 122.461,133.721 122.723,133.781 122.327 C 133.840 121.931,133.839 121.345,133.777 121.025 C 133.715 120.705,133.666 121.029,133.668 121.745 M245.378 123.096 C 245.628 123.162,246.038 123.162,246.289 123.096 C 246.540 123.031,246.335 122.977,245.833 122.977 C 245.332 122.977,245.127 123.031,245.378 123.096 M253.451 123.096 C 253.701 123.162,254.111 123.162,254.362 123.096 C 254.613 123.031,254.408 122.977,253.906 122.977 C 253.405 122.977,253.200 123.031,253.451 123.096 M215.104 129.948 L 208.724 130.092 215.024 130.150 C 219.007 130.187,221.383 130.113,221.484 129.948 C 221.573 129.805,221.609 129.714,221.565 129.746 C 221.521 129.778,218.613 129.869,215.104 129.948 M320.313 130.990 C 319.859 131.563,319.546 132.031,319.618 132.031 C 319.689 132.031,320.119 131.563,320.573 130.990 C 321.027 130.417,321.339 129.948,321.268 129.948 C 321.196 129.948,320.766 130.417,320.313 130.990 M306.762 133.008 L 305.339 134.505 306.836 133.082 C 307.660 132.299,308.333 131.625,308.333 131.584 C 308.333 131.391,308.084 131.617,306.762 133.008 M310.152 136.654 L 307.161 139.714 310.221 136.723 C 311.904 135.078,313.281 133.701,313.281 133.663 C 313.281 133.476,312.930 133.811,310.152 136.654 M237.500 134.717 C 237.500 134.762,237.881 135.143,238.346 135.563 L 239.193 136.328 238.428 135.482 C 237.715 134.693,237.500 134.516,237.500 134.717 M316.260 135.742 L 315.495 136.589 316.341 135.824 C 317.130 135.111,317.307 134.896,317.106 134.896 C 317.061 134.896,316.680 135.277,316.260 135.742 M116.341 138.470 C 116.807 138.527,117.568 138.527,118.034 138.470 C 118.499 138.412,118.118 138.365,117.188 138.365 C 116.257 138.365,115.876 138.412,116.341 138.470 M183.854 144.010 C 183.548 144.440,183.356 144.792,183.428 144.792 C 183.500 144.792,183.809 144.440,184.115 144.010 C 184.421 143.581,184.612 143.229,184.541 143.229 C 184.469 143.229,184.160 143.581,183.854 144.010 M105.553 146.810 C 111.974 146.849,122.403 146.849,128.731 146.810 C 135.058 146.771,129.805 146.739,117.057 146.739 C 104.310 146.739,99.133 146.771,105.553 146.810 M181.571 161.198 C 181.571 161.699,181.624 161.904,181.690 161.654 C 181.755 161.403,181.755 160.993,181.690 160.742 C 181.624 160.492,181.571 160.697,181.571 161.198 M156.502 167.122 L 155.078 168.620 156.576 167.196 C 157.967 165.874,158.192 165.625,157.999 165.625 C 157.958 165.625,157.284 166.299,156.502 167.122 M270.898 166.325 C 271.149 166.391,271.559 166.391,271.810 166.325 C 272.061 166.260,271.855 166.206,271.354 166.206 C 270.853 166.206,270.648 166.260,270.898 166.325 M74.740 168.571 C 74.740 168.616,75.120 168.997,75.586 169.417 L 76.432 170.182 75.667 169.336 C 74.954 168.547,74.740 168.370,74.740 168.571 M142.815 176.563 C 142.815 179.069,142.854 180.094,142.902 178.841 C 142.950 177.588,142.950 175.537,142.902 174.284 C 142.854 173.031,142.815 174.056,142.815 176.563 M89.169 179.948 C 89.169 182.311,89.208 183.278,89.256 182.096 C 89.305 180.915,89.305 178.981,89.256 177.799 C 89.208 176.618,89.169 177.585,89.169 179.948 M114.434 183.203 C 114.434 186.354,114.472 187.607,114.517 185.988 C 114.563 184.369,114.563 181.791,114.517 180.259 C 114.471 178.727,114.434 180.052,114.434 183.203 M135.774 181.380 C 135.775 182.956,135.818 183.567,135.870 182.738 C 135.922 181.909,135.921 180.620,135.869 179.873 C 135.816 179.127,135.774 179.805,135.774 181.380 M121.458 185.026 C 121.459 187.174,121.499 188.019,121.548 186.902 C 121.597 185.786,121.597 184.028,121.547 182.996 C 121.498 181.964,121.458 182.878,121.458 185.026 M124.319 186.458 C 124.319 188.249,124.361 188.981,124.412 188.086 C 124.462 187.191,124.462 185.726,124.412 184.831 C 124.361 183.936,124.319 184.668,124.319 186.458 M84.469 187.240 C 84.469 188.600,84.513 189.157,84.566 188.477 C 84.620 187.796,84.620 186.683,84.566 186.003 C 84.513 185.322,84.469 185.879,84.469 187.240 M146.669 187.691 L 146.615 190.355 140.169 190.430 L 133.724 190.504 140.177 190.565 C 145.338 190.613,146.657 190.556,146.763 190.280 C 146.836 190.090,146.857 188.830,146.809 187.480 L 146.723 185.026 146.669 187.691 M100.054 187.821 L 100.000 190.355 93.555 190.430 L 87.109 190.504 93.563 190.565 C 100.988 190.634,100.320 190.932,100.195 187.610 L 100.107 185.286 100.054 187.821 M84.441 190.755 C 84.444 191.328,84.497 191.532,84.559 191.208 C 84.621 190.884,84.619 190.415,84.554 190.166 C 84.489 189.917,84.438 190.182,84.441 190.755 M118.865 199.349 C 118.865 203.646,118.901 205.440,118.945 203.336 C 118.988 201.233,118.988 197.717,118.945 195.524 C 118.901 193.331,118.865 195.052,118.865 199.349 M177.665 207.031 C 177.665 207.533,177.718 207.738,177.784 207.487 C 177.849 207.236,177.849 206.826,177.784 206.576 C 177.718 206.325,177.665 206.530,177.665 207.031 M127.604 226.172 C 128.382 226.960,129.077 227.604,129.149 227.604 C 129.220 227.604,128.643 226.960,127.865 226.172 C 127.087 225.384,126.391 224.740,126.320 224.740 C 126.248 224.740,126.826 225.384,127.604 226.172 M126.620 230.347 C 127.009 230.757,127.375 231.040,127.432 230.976 C 127.489 230.912,127.170 230.576,126.723 230.231 L 125.911 229.602 126.620 230.347 " stroke="none" fill="#e87c84" fill-rule="evenodd"></path></g></svg>